<svg id="Layer_1" data-name="Layer 1" xmlns="http://www.w3.org/2000/svg" viewBox="0 0 369.97 134.08"><defs><style>.cls-1{fill:#fff;}</style></defs><title>logo</title><path class="cls-1" d="M34.85,104.67H77.12v29.41H0V0H34.85Z"/><polygon class="cls-1" points="153.13 80.39 179.46 80.39 166.32 41.43 165.97 41.43 153.13 80.39"/><polygon class="cls-1" points="160.13 104.63 168.84 134.08 198.69 134.08 188.11 104.63 160.13 104.63"/><polygon class="cls-1" points="349.7 0 315.02 0 286.22 71.66 259.01 0 224.69 0 212.47 72 235.85 134.08 236.6 134.08 247.81 56.9 248.16 56.9 278.93 134.08 292.8 134.08 324.98 56.9 325.34 56.9 335.12 134.08 369.97 134.08 349.7 0"/><polygon class="cls-1" points="107.04 104.66 147.3 0 117.45 0 77.2 104.66 107.04 104.66"/></svg>